<svg xmlns="http://www.w3.org/2000/svg" viewBox="0 0 128 128">
  <defs>
    <linearGradient id="g" x1="0%" y1="0%" x2="100%" y2="100%">
      <stop offset="0%" stop-color="#0ea5e9" />
      <stop offset="100%" stop-color="#0f172a" />
    </linearGradient>
  </defs>
  <rect width="128" height="128" rx="20" fill="url(#g)" />
  <path
    d="M38 86c8 10 16 15 26 15 16 0 26-11 26-27 0-16-12-29-28-29-6 0-11 2-15 4l5-16h35c2 0 4-2 4-4s-2-4-4-4H46c-2 0-4 1-5 3l-11 32c-1 3-1 6 0 9 2 4 6 8 8 11Zm14-31c3-2 7-3 11-3 11 0 20 9 20 21 0 12-7 19-18 19-7 0-13-3-19-11-2-3-4-5-5-8-1-3 0-7 2-10 2-3 5-6 9-8Z"
    fill="#e2e8f0"
  />
</svg>
